<mxfile host="Electron" agent="Mozilla/5.0 (X11; Linux x86_64) AppleWebKit/537.36 (KHTML, like Gecko) draw.io/26.0.9 Chrome/128.0.6613.186 Electron/32.2.5 Safari/537.36" version="26.0.9" pages="3">
  <diagram name="infrastructure" id="W3K7OQ9aMvBUIodgi6QH">
    <mxGraphModel dx="1900" dy="659" grid="1" gridSize="10" guides="1" tooltips="1" connect="1" arrows="1" fold="1" page="1" pageScale="1" pageWidth="850" pageHeight="1100" math="0" shadow="0">
      <root>
        <mxCell id="0" />
        <mxCell id="1" parent="0" />
        <mxCell id="rwEMOkiLDlRIaq0nUP3T-1" value="Vault" style="rounded=0;whiteSpace=wrap;html=1;" vertex="1" parent="1">
          <mxGeometry x="-100" y="90" width="120" height="60" as="geometry" />
        </mxCell>
        <mxCell id="ATIcUMMO_gcL2BB8WI5b-4" style="edgeStyle=orthogonalEdgeStyle;rounded=0;orthogonalLoop=1;jettySize=auto;html=1;entryX=1;entryY=0.5;entryDx=0;entryDy=0;" edge="1" parent="1" source="rwEMOkiLDlRIaq0nUP3T-3" target="rwEMOkiLDlRIaq0nUP3T-1">
          <mxGeometry relative="1" as="geometry">
            <Array as="points">
              <mxPoint x="450" y="120" />
            </Array>
          </mxGeometry>
        </mxCell>
        <mxCell id="rwEMOkiLDlRIaq0nUP3T-3" value="SSO" style="rounded=0;whiteSpace=wrap;html=1;" vertex="1" parent="1">
          <mxGeometry x="390" y="260" width="120" height="60" as="geometry" />
        </mxCell>
        <mxCell id="ATIcUMMO_gcL2BB8WI5b-8" style="edgeStyle=orthogonalEdgeStyle;rounded=0;orthogonalLoop=1;jettySize=auto;html=1;entryX=0.5;entryY=0;entryDx=0;entryDy=0;" edge="1" parent="1" source="rwEMOkiLDlRIaq0nUP3T-4" target="ATIcUMMO_gcL2BB8WI5b-6">
          <mxGeometry relative="1" as="geometry" />
        </mxCell>
        <mxCell id="rwEMOkiLDlRIaq0nUP3T-4" value="App-1" style="rounded=0;whiteSpace=wrap;html=1;" vertex="1" parent="1">
          <mxGeometry x="-100" y="260" width="120" height="60" as="geometry" />
        </mxCell>
        <mxCell id="ATIcUMMO_gcL2BB8WI5b-9" style="edgeStyle=orthogonalEdgeStyle;rounded=0;orthogonalLoop=1;jettySize=auto;html=1;entryX=0.5;entryY=0;entryDx=0;entryDy=0;" edge="1" parent="1" source="rwEMOkiLDlRIaq0nUP3T-5" target="ATIcUMMO_gcL2BB8WI5b-5">
          <mxGeometry relative="1" as="geometry" />
        </mxCell>
        <mxCell id="rwEMOkiLDlRIaq0nUP3T-5" value="App-2" style="rounded=0;whiteSpace=wrap;html=1;" vertex="1" parent="1">
          <mxGeometry x="110" y="260" width="120" height="60" as="geometry" />
        </mxCell>
        <mxCell id="ATIcUMMO_gcL2BB8WI5b-1" value="DGraph" style="shape=cylinder3;whiteSpace=wrap;html=1;boundedLbl=1;backgroundOutline=1;size=15;" vertex="1" parent="1">
          <mxGeometry x="650" y="250" width="140" height="80" as="geometry" />
        </mxCell>
        <mxCell id="ATIcUMMO_gcL2BB8WI5b-2" style="edgeStyle=orthogonalEdgeStyle;rounded=0;orthogonalLoop=1;jettySize=auto;html=1;entryX=0;entryY=0.5;entryDx=0;entryDy=0;entryPerimeter=0;" edge="1" parent="1" source="rwEMOkiLDlRIaq0nUP3T-3" target="ATIcUMMO_gcL2BB8WI5b-1">
          <mxGeometry relative="1" as="geometry" />
        </mxCell>
        <mxCell id="ATIcUMMO_gcL2BB8WI5b-10" style="edgeStyle=orthogonalEdgeStyle;rounded=0;orthogonalLoop=1;jettySize=auto;html=1;entryX=0.5;entryY=1;entryDx=0;entryDy=0;" edge="1" parent="1" source="ATIcUMMO_gcL2BB8WI5b-5" target="rwEMOkiLDlRIaq0nUP3T-3">
          <mxGeometry relative="1" as="geometry">
            <Array as="points">
              <mxPoint x="170" y="480" />
              <mxPoint x="450" y="480" />
            </Array>
          </mxGeometry>
        </mxCell>
        <mxCell id="ATIcUMMO_gcL2BB8WI5b-5" value="Resorces" style="whiteSpace=wrap;html=1;" vertex="1" parent="1">
          <mxGeometry x="110" y="370" width="120" height="60" as="geometry" />
        </mxCell>
        <mxCell id="ATIcUMMO_gcL2BB8WI5b-11" style="edgeStyle=orthogonalEdgeStyle;rounded=0;orthogonalLoop=1;jettySize=auto;html=1;" edge="1" parent="1" source="ATIcUMMO_gcL2BB8WI5b-6">
          <mxGeometry relative="1" as="geometry">
            <mxPoint x="450" y="320" as="targetPoint" />
            <Array as="points">
              <mxPoint x="-40" y="480" />
              <mxPoint x="451" y="480" />
            </Array>
          </mxGeometry>
        </mxCell>
        <mxCell id="ATIcUMMO_gcL2BB8WI5b-6" value="Resorces" style="whiteSpace=wrap;html=1;" vertex="1" parent="1">
          <mxGeometry x="-100" y="370" width="120" height="60" as="geometry" />
        </mxCell>
        <mxCell id="ATIcUMMO_gcL2BB8WI5b-12" value="Redis" style="shape=cylinder3;whiteSpace=wrap;html=1;boundedLbl=1;backgroundOutline=1;size=15;" vertex="1" parent="1">
          <mxGeometry x="650" y="370" width="140" height="80" as="geometry" />
        </mxCell>
        <mxCell id="ATIcUMMO_gcL2BB8WI5b-13" value="Postgre" style="shape=cylinder3;whiteSpace=wrap;html=1;boundedLbl=1;backgroundOutline=1;size=15;" vertex="1" parent="1">
          <mxGeometry x="650" y="130" width="140" height="80" as="geometry" />
        </mxCell>
        <mxCell id="ATIcUMMO_gcL2BB8WI5b-14" style="edgeStyle=orthogonalEdgeStyle;rounded=0;orthogonalLoop=1;jettySize=auto;html=1;entryX=0;entryY=0.5;entryDx=0;entryDy=0;entryPerimeter=0;fillColor=#a20025;strokeColor=#6F0000;" edge="1" parent="1" source="rwEMOkiLDlRIaq0nUP3T-3" target="ATIcUMMO_gcL2BB8WI5b-13">
          <mxGeometry relative="1" as="geometry" />
        </mxCell>
        <mxCell id="ATIcUMMO_gcL2BB8WI5b-15" style="edgeStyle=orthogonalEdgeStyle;rounded=0;orthogonalLoop=1;jettySize=auto;html=1;entryX=0;entryY=0.5;entryDx=0;entryDy=0;entryPerimeter=0;" edge="1" parent="1" source="rwEMOkiLDlRIaq0nUP3T-3" target="ATIcUMMO_gcL2BB8WI5b-12">
          <mxGeometry relative="1" as="geometry" />
        </mxCell>
      </root>
    </mxGraphModel>
  </diagram>
  <diagram id="oDwNC9wTgXiNNlEelezC" name="user-app-relations">
    <mxGraphModel dx="1763" dy="573" grid="1" gridSize="10" guides="1" tooltips="1" connect="1" arrows="1" fold="1" page="1" pageScale="1" pageWidth="850" pageHeight="1100" math="0" shadow="0">
      <root>
        <mxCell id="0" />
        <mxCell id="1" parent="0" />
        <mxCell id="Gn9KqDFu4aIBVq-qhHnX-10" value="" style="shape=umlLifeline;perimeter=lifelinePerimeter;whiteSpace=wrap;html=1;container=1;dropTarget=0;collapsible=0;recursiveResize=0;outlineConnect=0;portConstraint=eastwest;newEdgeStyle={&quot;curved&quot;:0,&quot;rounded&quot;:0};participant=umlActor;" vertex="1" parent="1">
          <mxGeometry x="-250" y="130" width="20" height="540" as="geometry" />
        </mxCell>
        <mxCell id="Gn9KqDFu4aIBVq-qhHnX-11" value="Request to a resource" style="html=1;verticalAlign=bottom;startArrow=oval;startFill=1;endArrow=block;startSize=8;curved=0;rounded=0;" edge="1" parent="1" source="Gn9KqDFu4aIBVq-qhHnX-10" target="Gn9KqDFu4aIBVq-qhHnX-12">
          <mxGeometry width="60" relative="1" as="geometry">
            <mxPoint x="-240.5" y="210" as="sourcePoint" />
            <mxPoint x="-90" y="210" as="targetPoint" />
            <Array as="points">
              <mxPoint x="-120" y="210" />
            </Array>
          </mxGeometry>
        </mxCell>
        <mxCell id="Gn9KqDFu4aIBVq-qhHnX-12" value="App" style="shape=umlLifeline;perimeter=lifelinePerimeter;whiteSpace=wrap;html=1;container=1;dropTarget=0;collapsible=0;recursiveResize=0;outlineConnect=0;portConstraint=eastwest;newEdgeStyle={&quot;curved&quot;:0,&quot;rounded&quot;:0};" vertex="1" parent="1">
          <mxGeometry x="-50" y="135" width="100" height="490" as="geometry" />
        </mxCell>
        <mxCell id="Gn9KqDFu4aIBVq-qhHnX-13" value="SSO" style="shape=umlLifeline;perimeter=lifelinePerimeter;whiteSpace=wrap;html=1;container=1;dropTarget=0;collapsible=0;recursiveResize=0;outlineConnect=0;portConstraint=eastwest;newEdgeStyle={&quot;curved&quot;:0,&quot;rounded&quot;:0};" vertex="1" parent="1">
          <mxGeometry x="190" y="130" width="100" height="510" as="geometry" />
        </mxCell>
        <mxCell id="Gn9KqDFu4aIBVq-qhHnX-14" value="Vault" style="shape=umlLifeline;perimeter=lifelinePerimeter;whiteSpace=wrap;html=1;container=1;dropTarget=0;collapsible=0;recursiveResize=0;outlineConnect=0;portConstraint=eastwest;newEdgeStyle={&quot;curved&quot;:0,&quot;rounded&quot;:0};" vertex="1" parent="1">
          <mxGeometry x="430" y="130" width="100" height="500" as="geometry" />
        </mxCell>
        <mxCell id="Gn9KqDFu4aIBVq-qhHnX-15" value="Login Request" style="html=1;verticalAlign=bottom;startArrow=oval;startFill=1;endArrow=block;startSize=8;curved=0;rounded=0;" edge="1" parent="1" source="Gn9KqDFu4aIBVq-qhHnX-12" target="Gn9KqDFu4aIBVq-qhHnX-13">
          <mxGeometry width="60" relative="1" as="geometry">
            <mxPoint x="29.5" y="240" as="sourcePoint" />
            <mxPoint x="259.5" y="240" as="targetPoint" />
            <Array as="points">
              <mxPoint x="150" y="240" />
            </Array>
          </mxGeometry>
        </mxCell>
        <mxCell id="Gn9KqDFu4aIBVq-qhHnX-16" value="App secret request" style="html=1;verticalAlign=bottom;startArrow=oval;startFill=1;endArrow=block;startSize=8;curved=0;rounded=0;" edge="1" parent="1" source="Gn9KqDFu4aIBVq-qhHnX-13" target="Gn9KqDFu4aIBVq-qhHnX-14">
          <mxGeometry width="60" relative="1" as="geometry">
            <mxPoint x="259.8750000000002" y="270" as="sourcePoint" />
            <mxPoint x="499.5" y="270" as="targetPoint" />
            <Array as="points">
              <mxPoint x="390" y="270" />
            </Array>
          </mxGeometry>
        </mxCell>
        <mxCell id="Gn9KqDFu4aIBVq-qhHnX-17" value="Return app secrets" style="html=1;verticalAlign=bottom;endArrow=open;dashed=1;endSize=8;curved=0;rounded=0;" edge="1" parent="1" source="Gn9KqDFu4aIBVq-qhHnX-14" target="Gn9KqDFu4aIBVq-qhHnX-13">
          <mxGeometry relative="1" as="geometry">
            <mxPoint x="499.5" y="320" as="sourcePoint" />
            <mxPoint x="259.8750000000002" y="320" as="targetPoint" />
            <Array as="points">
              <mxPoint x="380" y="310" />
            </Array>
          </mxGeometry>
        </mxCell>
        <mxCell id="Gn9KqDFu4aIBVq-qhHnX-18" value="Return JWT or Error" style="html=1;verticalAlign=bottom;endArrow=open;dashed=1;endSize=8;curved=0;rounded=0;" edge="1" parent="1" source="Gn9KqDFu4aIBVq-qhHnX-13" target="Gn9KqDFu4aIBVq-qhHnX-12">
          <mxGeometry relative="1" as="geometry">
            <mxPoint x="269.5" y="350" as="sourcePoint" />
            <mxPoint x="19.875" y="350" as="targetPoint" />
            <Array as="points">
              <mxPoint x="150" y="340" />
            </Array>
          </mxGeometry>
        </mxCell>
        <mxCell id="Gn9KqDFu4aIBVq-qhHnX-19" value="CheckPermissions" style="html=1;verticalAlign=bottom;startArrow=oval;startFill=1;endArrow=block;startSize=8;curved=0;rounded=0;" edge="1" parent="1" source="Gn9KqDFu4aIBVq-qhHnX-12" target="Gn9KqDFu4aIBVq-qhHnX-13">
          <mxGeometry width="60" relative="1" as="geometry">
            <mxPoint x="160" y="370" as="sourcePoint" />
            <mxPoint x="220" y="370" as="targetPoint" />
            <Array as="points">
              <mxPoint x="140" y="390" />
            </Array>
          </mxGeometry>
        </mxCell>
        <mxCell id="Gn9KqDFu4aIBVq-qhHnX-20" value="Return Access or Denied" style="html=1;verticalAlign=bottom;endArrow=open;dashed=1;endSize=8;curved=0;rounded=0;" edge="1" parent="1" source="Gn9KqDFu4aIBVq-qhHnX-13" target="Gn9KqDFu4aIBVq-qhHnX-12">
          <mxGeometry relative="1" as="geometry">
            <mxPoint x="20" y="390" as="sourcePoint" />
            <mxPoint x="-60" y="390" as="targetPoint" />
            <Array as="points">
              <mxPoint x="120" y="460" />
            </Array>
          </mxGeometry>
        </mxCell>
        <mxCell id="7lm42wJUAmsUZh6S9P21-1" value="Return whatever depend on access" style="html=1;verticalAlign=bottom;endArrow=open;dashed=1;endSize=8;curved=0;rounded=0;" edge="1" parent="1" source="Gn9KqDFu4aIBVq-qhHnX-12" target="Gn9KqDFu4aIBVq-qhHnX-10">
          <mxGeometry relative="1" as="geometry">
            <mxPoint x="-110" y="440" as="sourcePoint" />
            <mxPoint x="-190" y="440" as="targetPoint" />
            <Array as="points">
              <mxPoint x="-120" y="490" />
            </Array>
          </mxGeometry>
        </mxCell>
      </root>
    </mxGraphModel>
  </diagram>
  <diagram id="o9jpufHpqjqOz1AWL2Se" name="graph-entities">
    <mxGraphModel dx="1050" dy="1759" grid="1" gridSize="10" guides="1" tooltips="1" connect="1" arrows="1" fold="1" page="1" pageScale="1" pageWidth="850" pageHeight="1100" math="0" shadow="0">
      <root>
        <mxCell id="0" />
        <mxCell id="1" parent="0" />
        <mxCell id="airK0O_PXOHJ8-8-6O8A-5" style="edgeStyle=orthogonalEdgeStyle;rounded=0;orthogonalLoop=1;jettySize=auto;html=1;entryX=0;entryY=0.5;entryDx=0;entryDy=0;" edge="1" parent="1" source="airK0O_PXOHJ8-8-6O8A-1" target="airK0O_PXOHJ8-8-6O8A-3">
          <mxGeometry relative="1" as="geometry" />
        </mxCell>
        <mxCell id="airK0O_PXOHJ8-8-6O8A-1" value="User" style="whiteSpace=wrap;html=1;" vertex="1" parent="1">
          <mxGeometry x="80" y="120" width="120" height="60" as="geometry" />
        </mxCell>
        <mxCell id="airK0O_PXOHJ8-8-6O8A-7" style="edgeStyle=orthogonalEdgeStyle;rounded=0;orthogonalLoop=1;jettySize=auto;html=1;" edge="1" parent="1" source="airK0O_PXOHJ8-8-6O8A-2">
          <mxGeometry relative="1" as="geometry">
            <mxPoint x="380" y="120" as="targetPoint" />
            <Array as="points">
              <mxPoint x="610" y="30" />
              <mxPoint x="381" y="30" />
            </Array>
          </mxGeometry>
        </mxCell>
        <mxCell id="airK0O_PXOHJ8-8-6O8A-2" value="Role" style="whiteSpace=wrap;html=1;" vertex="1" parent="1">
          <mxGeometry x="550" y="-80" width="120" height="60" as="geometry" />
        </mxCell>
        <mxCell id="airK0O_PXOHJ8-8-6O8A-3" value="Permission" style="whiteSpace=wrap;html=1;" vertex="1" parent="1">
          <mxGeometry x="320" y="120" width="120" height="60" as="geometry" />
        </mxCell>
        <mxCell id="airK0O_PXOHJ8-8-6O8A-6" style="edgeStyle=orthogonalEdgeStyle;rounded=0;orthogonalLoop=1;jettySize=auto;html=1;entryX=0.5;entryY=0;entryDx=0;entryDy=0;" edge="1" parent="1" source="airK0O_PXOHJ8-8-6O8A-4" target="airK0O_PXOHJ8-8-6O8A-3">
          <mxGeometry relative="1" as="geometry" />
        </mxCell>
        <mxCell id="airK0O_PXOHJ8-8-6O8A-4" value="Resource" style="whiteSpace=wrap;html=1;" vertex="1" parent="1">
          <mxGeometry x="320" y="-80" width="120" height="60" as="geometry" />
        </mxCell>
      </root>
    </mxGraphModel>
  </diagram>
</mxfile>
